<?xml version="1.0" standalone="yes"?>

<svg version="1.1" viewBox="0.0 0.0 655.0 305.0" fill="none" stroke="none" stroke-linecap="square" stroke-miterlimit="10" clip-path="url(#clip0)" xmlns="http://www.w3.org/2000/svg" xmlns:xlink="http://www.w3.org/1999/xlink"><clipPath id="clip0"><path d="M0 0L655.0 0L655.0 305.0L0 305.0L0 0Z" clip-rule="nonzero"></path></clipPath><path d="M80.666664 124.19432L80.666664 124.19432C80.666664 121.54736 82.812454 119.40157 85.45941 119.40157L122.99203 119.40157C124.263145 119.40157 125.4822 119.906525 126.38101 120.805336C127.27983 121.704155 127.784775 122.9232 127.784775 124.19432L127.784775 143.36473C127.784775 146.01169 125.63899 148.15749 122.99203 148.15749L85.45941 148.15749C82.812454 148.15749 80.666664 146.01169 80.666664 143.36473Z" fill-rule="nonzero" fill="#cfe2f3" stroke="#073763" stroke-width="2.0" stroke-linejoin="round" stroke-linecap="butt"></path><path d="M176.66667 95.438416L176.66667 95.438416C176.66667 92.79146 178.81245 90.64567 181.45941 90.64567L218.99203 90.64567C220.26314 90.64567 221.4822 91.15062 222.38101 92.04943C223.27983 92.94825 223.78477 94.1673 223.78477 95.438416L223.78477 114.608826C223.78477 117.25579 221.63899 119.40157 218.99203 119.40157L181.45941 119.40157C178.81245 119.40157 176.66667 117.25579 176.66667 114.608826Z" fill-rule="nonzero" fill="#cfe2f3" stroke="#073763" stroke-width="2.0" stroke-linejoin="round" stroke-linecap="butt"></path><path d="M176.66667 152.95023L176.66667 152.95023C176.66667 150.30327 178.81245 148.15749 181.45941 148.15749L218.99203 148.15749C220.26314 148.15749 221.4822 148.66243 222.38101 149.56125C223.27983 150.46005 223.78477 151.67911 223.78477 152.95023L223.78477 172.12064C223.78477 174.7676 221.63899 176.91339 218.99203 176.91339L181.45941 176.91339C178.81245 176.91339 176.66667 174.7676 176.66667 172.12064Z" fill-rule="nonzero" fill="#cfe2f3" stroke="#073763" stroke-width="2.0" stroke-linejoin="round" stroke-linecap="butt"></path><path d="M267.63516 152.95023L267.63516 152.95023C267.63516 150.30327 269.78094 148.15749 272.42792 148.15749L309.96054 148.15749C311.23166 148.15749 312.4507 148.66243 313.34952 149.56125C314.24832 150.46005 314.75327 151.67911 314.75327 152.95023L314.75327 172.12064C314.75327 174.7676 312.60748 176.91339 309.96054 176.91339L272.42792 176.91339C269.78094 176.91339 267.63516 174.7676 267.63516 172.12064Z" fill-rule="nonzero" fill="#cfe2f3" stroke="#073763" stroke-width="2.0" stroke-linejoin="round" stroke-linecap="butt"></path><path d="M355.51706 152.95023L355.51706 152.95023C355.51706 150.30327 357.66284 148.15749 360.3098 148.15749L397.84244 148.15749C399.11353 148.15749 400.33258 148.66243 401.2314 149.56125C402.13022 150.46005 402.63516 151.67911 402.63516 152.95023L402.63516 172.12064C402.63516 174.7676 400.48938 176.91339 397.84244 176.91339L360.3098 176.91339C357.66284 176.91339 355.51706 174.7676 355.51706 172.12064Z" fill-rule="nonzero" fill="#cfe2f3" stroke="#073763" stroke-width="2.0" stroke-linejoin="round" stroke-linecap="butt"></path><path d="M267.63516 95.438416L267.63516 95.438416C267.63516 92.79146 269.78094 90.64567 272.42792 90.64567L309.96054 90.64567C311.23166 90.64567 312.4507 91.15062 313.34952 92.04943C314.24832 92.94825 314.75327 94.1673 314.75327 95.438416L314.75327 114.608826C314.75327 117.25579 312.60748 119.40157 309.96054 119.40157L272.42792 119.40157C269.78094 119.40157 267.63516 117.25579 267.63516 114.608826Z" fill-rule="nonzero" fill="#cfe2f3" stroke="#073763" stroke-width="2.0" stroke-linejoin="round" stroke-linecap="butt"></path><path d="M524.88715 124.19432L524.88715 124.19432C524.88715 121.54736 527.0329 119.40157 529.6799 119.40157L567.2125 119.40157C568.48364 119.40157 569.7027 119.906525 570.6015 120.805336C571.5003 121.704155 572.00525 122.9232 572.00525 124.19432L572.00525 143.36473C572.00525 146.01169 569.85944 148.15749 567.2125 148.15749L529.6799 148.15749C527.0329 148.15749 524.88715 146.01169 524.88715 143.36473Z" fill-rule="nonzero" fill="#cfe2f3" stroke="#073763" stroke-width="2.0" stroke-linejoin="round" stroke-linecap="butt"></path><path d="M441.85303 124.19432L441.85303 124.19432C441.85303 121.54736 443.9988 119.40157 446.64575 119.40157L484.17838 119.40157C485.4495 119.40157 486.66855 119.906525 487.56735 120.805336C488.4662 121.704155 488.97113 122.9232 488.97113 124.19432L488.97113 143.36473C488.97113 146.01169 486.82535 148.15749 484.17838 148.15749L446.64575 148.15749C443.9988 148.15749 441.85303 146.01169 441.85303 143.36473Z" fill-rule="nonzero" fill="#cfe2f3" stroke="#073763" stroke-width="2.0" stroke-linejoin="round" stroke-linecap="butt"></path><path d="M267.63516 205.87149L267.63516 205.87149C267.63516 203.22453 269.78094 201.07874 272.42792 201.07874L309.96054 201.07874C311.23166 201.07874 312.4507 201.5837 313.34952 202.4825C314.24832 203.38132 314.75327 204.60037 314.75327 205.87149L314.75327 225.0419C314.75327 227.68886 312.60748 229.83464 309.96054 229.83464L272.42792 229.83464C269.78094 229.83464 267.63516 227.68886 267.63516 225.0419Z" fill-rule="nonzero" fill="#cfe2f3" stroke="#073763" stroke-width="2.0" stroke-linejoin="round" stroke-linecap="butt"></path><path d="M127.784775 133.77953L166.32362 111.108154" fill-rule="evenodd" stroke="#073763" stroke-width="2.0" stroke-linejoin="round" stroke-linecap="butt"></path><path d="M167.99863 113.955475L174.14658 106.50612L164.64862 108.26083Z" fill-rule="evenodd" fill="#073763" stroke="#073763" stroke-width="2.0" stroke-linecap="butt"></path><path d="M129.39108 134.56693L166.3387 156.42535" fill-rule="evenodd" stroke="#073763" stroke-width="2.0" stroke-linejoin="round" stroke-linecap="butt"></path><path d="M164.65666 159.26852L174.15025 161.0467L168.02074 153.58218Z" fill-rule="evenodd" fill="#073763" stroke="#073763" stroke-width="2.0" stroke-linecap="butt"></path><path d="M223.78477 105.02362L255.63518 105.02362" fill-rule="evenodd" stroke="#073763" stroke-width="2.0" stroke-linejoin="round" stroke-linecap="butt"></path><path d="M255.63518 108.32709L264.71136 105.02362L255.63518 101.72015Z" fill-rule="evenodd" fill="#073763" stroke="#073763" stroke-width="2.0" stroke-linecap="butt"></path><path d="M223.78477 162.53543L255.63518 162.53543" fill-rule="evenodd" stroke="#073763" stroke-width="2.0" stroke-linejoin="round" stroke-linecap="butt"></path><path d="M255.63518 165.8389L264.71136 162.53543L255.63518 159.23196Z" fill-rule="evenodd" fill="#073763" stroke="#073763" stroke-width="2.0" stroke-linecap="butt"></path><path d="M314.7533 162.53543L343.51706 162.53543" fill-rule="evenodd" stroke="#073763" stroke-width="2.0" stroke-linejoin="round" stroke-linecap="butt"></path><path d="M343.51706 165.8389L352.59326 162.53543L343.51706 159.23196Z" fill-rule="evenodd" fill="#073763" stroke="#073763" stroke-width="2.0" stroke-linecap="butt"></path><path d="M223.78477 162.53543L259.97882 206.21655" fill-rule="evenodd" stroke="#073763" stroke-width="2.0" stroke-linejoin="round" stroke-linecap="butt"></path><path d="M257.43512 208.32426L265.76968 213.20532L262.52252 204.10884Z" fill-rule="evenodd" fill="#073763" stroke="#073763" stroke-width="2.0" stroke-linecap="butt"></path><path d="M314.7533 215.4567L348.1943 172.04214" fill-rule="evenodd" stroke="#073763" stroke-width="2.0" stroke-linejoin="round" stroke-linecap="butt"></path><path d="M350.8114 174.058L353.73288 164.85175L345.57724 170.02626Z" fill-rule="evenodd" fill="#073763" stroke="#073763" stroke-width="2.0" stroke-linecap="butt"></path><path d="M402.63516 162.53543L432.1757 140.87527" fill-rule="evenodd" stroke="#073763" stroke-width="2.0" stroke-linejoin="round" stroke-linecap="butt"></path><path d="M434.1291 143.53932L439.49515 135.5084L430.22232 138.21121Z" fill-rule="evenodd" fill="#073763" stroke="#073763" stroke-width="2.0" stroke-linecap="butt"></path><path d="M314.7533 105.02362L430.74762 130.4251" fill-rule="evenodd" stroke="#073763" stroke-width="2.0" stroke-linejoin="round" stroke-linecap="butt"></path><path d="M430.04092 133.65208L439.6137 132.36667L431.45428 127.1981Z" fill-rule="evenodd" fill="#073763" stroke="#073763" stroke-width="2.0" stroke-linecap="butt"></path><path d="M488.97113 133.77953L512.88715 133.77953" fill-rule="evenodd" stroke="#073763" stroke-width="2.0" stroke-linejoin="round" stroke-linecap="butt"></path><path d="M512.88715 137.083L521.9633 133.77953L512.88715 130.47606Z" fill-rule="evenodd" fill="#073763" stroke="#073763" stroke-width="2.0" stroke-linecap="butt"></path><path d="M106.11253 140.2794L104.44066 140.2794L104.44066 129.63878Q103.84691 130.2169 102.86253 130.78722Q101.87816 131.35753 101.09691 131.6544L101.09691 130.0294Q102.50316 129.37315 103.55003 128.43565Q104.59691 127.49815 105.03441 126.62315L106.11253 126.62315L106.11253 140.2794Z" fill-rule="nonzero" fill="#000000"></path><path d="M204.59691 109.91412L204.59691 111.5235L195.61253 111.5235Q195.59691 110.91412 195.80003 110.36725Q196.14378 109.44537 196.9016 108.55475Q197.65941 107.66412 199.08128 106.49225Q201.30003 104.67975 202.08128 103.61725Q202.86253 102.55475 202.86253 101.60162Q202.86253 100.61725 202.1516 99.92975Q201.44066 99.24225 200.30003 99.24225Q199.09691 99.24225 198.37035 99.96881Q197.64378 100.69537 197.64378 101.97662L195.92503 101.80475Q196.09691 99.88287 197.25316 98.87506Q198.40941 97.86725 200.34691 97.86725Q202.30003 97.86725 203.44066 98.953186Q204.58128 100.03912 204.58128 101.6485Q204.58128 102.461 204.24535 103.25006Q203.90941 104.03912 203.13597 104.90631Q202.36253 105.7735 200.56566 107.30475Q199.06566 108.57037 198.63597 109.015686Q198.20628 109.461 197.92503 109.91412L204.59691 109.91412Z" fill-rule="nonzero" fill="#000000"></path><path d="M195.83128 165.44156L197.50316 165.22281Q197.78441 166.64468 198.47972 167.26968Q199.17503 167.89468 200.15941 167.89468Q201.34691 167.89468 202.15941 167.07437Q202.97191 166.25406 202.97191 165.05093Q202.97191 163.91031 202.2141 163.16031Q201.45628 162.41031 200.30003 162.41031Q199.83128 162.41031 199.12816 162.59781L199.31566 161.12906Q199.47191 161.14468 199.58128 161.14468Q200.64378 161.14468 201.49535 160.59Q202.34691 160.03531 202.34691 158.87906Q202.34691 157.95718 201.72972 157.35562Q201.11253 156.75406 200.12816 156.75406Q199.15941 156.75406 198.51097 157.36343Q197.86253 157.97281 197.67503 159.20718L196.00316 158.91031Q196.30003 157.22281 197.38597 156.30093Q198.47191 155.37906 200.09691 155.37906Q201.20628 155.37906 202.14378 155.85562Q203.08128 156.33218 203.57347 157.16031Q204.06566 157.98843 204.06566 158.91031Q204.06566 159.80093 203.59691 160.51968Q203.12816 161.23843 202.19066 161.67593Q203.40941 161.94156 204.07347 162.82437Q204.73753 163.70718 204.73753 165.01968Q204.73753 166.80093 203.44066 168.03531Q202.14378 169.26968 200.15941 169.26968Q198.36253 169.26968 197.18285 168.20718Q196.00316 167.14468 195.83128 165.44156Z" fill-rule="nonzero" fill="#000000"></path><path d="M286.78415 107.961L288.54977 107.80475Q288.73727 109.086 289.4482 109.734436Q290.15915 110.38287 291.15915 110.38287Q292.36227 110.38287 293.1982 109.47662Q294.03415 108.57037 294.03415 107.05475Q294.03415 105.63287 293.22946 104.80475Q292.42477 103.97662 291.1279 103.97662Q290.33102 103.97662 289.6826 104.34381Q289.03415 104.711 288.65915 105.30475L287.08102 105.10162L288.40915 98.10162L295.17477 98.10162L295.17477 99.711L289.73727 99.711L289.0029 103.35162Q290.23727 102.50787 291.58102 102.50787Q293.36227 102.50787 294.58884 103.74225Q295.8154 104.97662 295.8154 106.91412Q295.8154 108.75787 294.73727 110.10162Q293.42477 111.75787 291.15915 111.75787Q289.29977 111.75787 288.1279 110.71881Q286.95602 109.67975 286.78415 107.961Z" fill-rule="nonzero" fill="#000000"></path><path d="M292.14352 169.03531L292.14352 165.78531L286.23727 165.78531L286.23727 164.25406L292.45602 155.44156L293.8154 155.44156L293.8154 164.25406L295.65915 164.25406L295.65915 165.78531L293.8154 165.78531L293.8154 169.03531L292.14352 169.03531ZM292.14352 164.25406L292.14352 158.11343L287.89352 164.25406L292.14352 164.25406Z" fill-rule="nonzero" fill="#000000"></path><path d="M295.45602 211.69095L293.79977 211.81595Q293.58102 210.83157 293.15915 210.39407Q292.48727 209.67532 291.5029 209.67532Q290.6904 209.67532 290.09665 210.11282Q289.29977 210.69095 288.84665 211.79251Q288.39352 212.89407 288.3779 214.94095Q288.98727 214.01907 289.85446 213.57376Q290.72165 213.12845 291.67477 213.12845Q293.34665 213.12845 294.51852 214.36282Q295.6904 215.5972 295.6904 217.5347Q295.6904 218.81595 295.14352 219.91751Q294.59665 221.01907 293.6279 221.60501Q292.65915 222.19095 291.4404 222.19095Q289.34665 222.19095 288.03415 220.65189Q286.72165 219.11282 286.72165 215.5972Q286.72165 211.64407 288.17477 209.86282Q289.4404 208.30032 291.59665 208.30032Q293.20602 208.30032 294.22946 209.19876Q295.2529 210.0972 295.45602 211.69095ZM288.64352 217.55032Q288.64352 218.4097 289.0107 219.19876Q289.3779 219.98782 290.03415 220.40189Q290.6904 220.81595 291.40915 220.81595Q292.47165 220.81595 293.22946 219.96439Q293.98727 219.11282 293.98727 217.64407Q293.98727 216.23782 293.23727 215.42532Q292.48727 214.61282 291.34665 214.61282Q290.22165 214.61282 289.4326 215.42532Q288.64352 216.23782 288.64352 217.55032Z" fill-rule="nonzero" fill="#000000"></path><path d="M374.79105 157.22281L374.79105 155.61343L383.58792 155.61343L383.58792 156.91031Q382.29105 158.28531 381.0176 160.58218Q379.74417 162.87906 379.04105 165.30093Q378.54105 167.00406 378.40042 169.03531L376.68167 169.03531Q376.71292 167.42593 377.31448 165.1525Q377.91605 162.87906 379.04886 160.76968Q380.18167 158.66031 381.4473 157.22281L374.79105 157.22281Z" fill-rule="nonzero" fill="#000000"></path><path d="M463.58014 132.9044Q462.53326 132.5294 462.03326 131.81847Q461.53326 131.10753 461.53326 130.12315Q461.53326 128.63878 462.60358 127.63097Q463.6739 126.62315 465.4395 126.62315Q467.22076 126.62315 468.3067 127.6544Q469.39264 128.68565 469.39264 130.17003Q469.39264 131.12315 468.90045 131.82628Q468.40826 132.5294 467.39264 132.9044Q468.64264 133.31065 469.2989 134.2169Q469.95514 135.12315 469.95514 136.38878Q469.95514 138.13878 468.72076 139.32628Q467.4864 140.51378 465.47076 140.51378Q463.45514 140.51378 462.22076 139.31847Q460.9864 138.12315 460.9864 136.3419Q460.9864 135.01378 461.65826 134.12315Q462.33014 133.23253 463.58014 132.9044ZM463.252 130.07628Q463.252 131.04503 463.8692 131.6544Q464.4864 132.26378 465.4864 132.26378Q466.4395 132.26378 467.0567 131.6544Q467.6739 131.04503 467.6739 130.17003Q467.6739 129.24815 467.04108 128.62315Q466.40826 127.99815 465.45514 127.99815Q464.502 127.99815 463.877 128.60753Q463.252 129.2169 463.252 130.07628ZM462.70514 136.35753Q462.70514 137.07628 463.04108 137.74034Q463.377 138.4044 464.0489 138.77159Q464.72076 139.13878 465.4864 139.13878Q466.6895 139.13878 467.47076 138.36534Q468.252 137.5919 468.252 136.4044Q468.252 135.20128 467.44733 134.41222Q466.64264 133.62315 465.4395 133.62315Q464.252 133.62315 463.47858 134.4044Q462.70514 135.18565 462.70514 136.35753Z" fill-rule="nonzero" fill="#000000"></path><path d="M544.30176 137.13878L545.8955 136.98253Q546.09863 138.12315 546.67676 138.63097Q547.2549 139.13878 548.16113 139.13878Q548.92676 139.13878 549.5049 138.78722Q550.083 138.43565 550.458 137.8419Q550.833 137.24815 551.083 136.24815Q551.333 135.24815 551.333 134.2169Q551.333 134.10753 551.3174 133.87315Q550.8174 134.67003 549.9502 135.17003Q549.083 135.67003 548.0674 135.67003Q546.3799 135.67003 545.208 134.44347Q544.03613 133.2169 544.03613 131.2169Q544.03613 129.13878 545.2627 127.88097Q546.48926 126.62315 548.3174 126.62315Q549.6455 126.62315 550.7471 127.33409Q551.84863 128.04503 552.41895 129.37315Q552.98926 130.70128 552.98926 133.20128Q552.98926 135.81065 552.41895 137.35753Q551.84863 138.9044 550.73145 139.70909Q549.61426 140.51378 548.11426 140.51378Q546.5205 140.51378 545.5127 139.62315Q544.5049 138.73253 544.30176 137.13878ZM551.1299 131.13878Q551.1299 129.70128 550.36426 128.84972Q549.59863 127.99815 548.5205 127.99815Q547.41113 127.99815 546.583 128.91222Q545.7549 129.82628 545.7549 131.26378Q545.7549 132.57628 546.54395 133.38097Q547.333 134.18565 548.47363 134.18565Q549.6455 134.18565 550.3877 133.38097Q551.1299 132.57628 551.1299 131.13878Z" fill-rule="nonzero" fill="#000000"></path></svg>

